/vscmnt/brussel_pixiu_data/_data_brussel/112/vsc11236/PredSimResults/SUBJ10mtu3D/weighted-LRposFixed/expIG/worker_04.mot
version=1
nRows=4
nColumns=50
inDegrees=yes
endheader
                time	         pelvis_tilt	         pelvis_list	     pelvis_rotation	           pelvis_tx	           pelvis_ty	           pelvis_tz	       hip_flexion_r	     hip_adduction_r	      hip_rotation_r	        knee_angle_r	       ankle_angle_r	         mtp_angle_r	       hip_flexion_l	     hip_adduction_l	      hip_rotation_l	        knee_angle_l	       ankle_angle_l	         mtp_angle_l	    lumbar_extension	      lumbar_bending	     lumbar_rotation	 ercspn_r/activation	 intobl_r/activation	 extobl_r/activation	    abd_r/activation	    add_r/activation	hamstrings_r/activation	bifemsh_r/activation	glut_max_r/activation	iliopsoas_r/activation	rect_fem_r/activation	  vasti_r/activation	gastroc_r/activation	 soleus_r/activation	tib_ant_r/activation	 ercspn_l/activation	 intobl_l/activation	 extobl_l/activation	    abd_l/activation	    add_l/activation	hamstrings_l/activation	bifemsh_l/activation	glut_max_l/activation	iliopsoas_l/activation	rect_fem_l/activation	  vasti_l/activation	gastroc_l/activation	 soleus_l/activation	tib_ant_l/activation	
          0.00000000	         -4.85243408	         -3.14327800	         10.63188292	          0.00000000	          0.82960059	         -0.01619726	         28.10808056	         -0.78594465	         -8.23940029	         -3.80944147	          6.66529146	          0.24981751	        -11.55070598	         -3.18629063	          6.59295761	         -8.12044968	         10.58171906	         23.79005606	         -6.26844305	          1.04178030	         -3.70919856	          0.08531919	          0.16500739	          0.02077872	          0.01200618	          0.13023373	          0.02301563	          0.08119963	          0.01000000	          0.06609883	          0.01454029	          0.01200617	          0.00999999	          0.00999999	          0.26514972	          0.03363535	          0.00999999	          0.00999999	          0.04317557	          0.03824700	          0.02559476	          0.12034625	          0.03596113	          0.30953822	          0.00999999	          0.00999999	          0.25706725	          0.24525724	          0.01554873	
          0.01203707	         -4.92462096	         -2.93278069	         10.45214201	          0.01496740	          0.82788197	         -0.01565836	         28.15556436	         -0.61723038	         -7.21083250	         -5.40081282	          6.38966177	          0.24432560	        -11.65072578	         -2.96937440	          5.89865477	         -9.85443642	         10.16322080	         25.41443573	         -6.04283757	          1.41143532	         -3.88050393	          0.07106274	          0.14241311	          0.01730669	          0.01000000	          0.18521855	          0.02509877	          0.07728167	          0.05190432	          0.05505401	          0.01211067	          0.00999999	          0.01865321	          0.01730674	          0.26944527	          0.07458399	          0.00999999	          0.00999999	          0.03596112	          0.08488947	          0.02131800	          0.10023693	          0.02995219	          0.32187829	          0.00999999	          0.00999999	          0.21690142	          0.23420841	          0.01295060	
          0.02407415	         -4.98079703	         -2.72933985	         10.21010447	          0.03025274	          0.82631164	         -0.01506766	         28.01776937	         -0.45341618	         -6.17162738	         -6.87614932	          6.09010664	          0.23861776	        -11.60186963	         -2.74647100	          5.15365397	        -11.92612848	          9.63355245	         27.02379308	         -5.79790922	          1.80904690	         -4.03243959	          0.06977333	          0.11861652	          0.01441482	          0.04930524	          0.16371039	          0.04003171	          0.07948850	          0.06089328	          0.04585473	          0.01008703	          0.00999999	          0.01553634	          0.01441486	          0.30069040	          0.08986308	          0.00999999	          0.00999999	          0.02995218	          0.07823932	          0.01775588	          0.08348779	          0.02494731	          0.31163855	          0.00999999	          0.00999999	          0.18065816	          0.21911971	          0.01078662	
          0.03611122	         -5.02258852	         -2.53028120	          9.90685905	          0.04565511	          0.82504490	         -0.01437511	         27.73534019	         -0.26837844	         -5.20924953	         -8.11286942	          5.71888711	          0.22756866	        -11.34155620	         -2.52035420	          4.36268256	        -14.40082887	          8.93743466	         28.56275550	         -5.55379535	          2.22116411	         -4.16202123	          0.07773032	          0.09879623	          0.01200617	          0.08914428	          0.16782956	          0.04029136	          0.06620633	          0.07784570	          0.03819261	          0.00999999	          0.00999999	          0.01294029	          0.01200620	          0.31751514	          0.11302109	          0.00999999	          0.00999999	          0.02494731	          0.08471935	          0.01858930	          0.06953735	          0.02077873	          0.29827293	          0.00999999	          0.00999999	          0.15047099	          0.19048991	          0.00999999	
